<?xml version="1.0" standalone="no"?>
<!DOCTYPE svg PUBLIC "-//W3C//DTD SVG 20010904//EN"
 "http://www.w3.org/TR/2001/REC-SVG-20010904/DTD/svg10.dtd">
<svg version="1.0" xmlns="http://www.w3.org/2000/svg"
 width="700.000000pt" height="700.000000pt" viewBox="0 0 700.000000 700.000000"
 preserveAspectRatio="xMidYMid meet">
<metadata>
Created by potrace 1.14, written by Peter Selinger 2001-2017
</metadata>
<g transform="translate(0.000000,700.000000) scale(0.100000,-0.100000)"
fill="#000000" stroke="none">
<path d="M1240 5614 l0 -291 320 0 c176 0 323 -3 327 -7 5 -4 8 -135 8 -292
l1 -284 -328 0 -328 0 0 -328 0 -328 -292 0 -293 1 1 618 c0 589 -1 617 -18
618 -10 0 -153 1 -318 1 -165 0 -305 -1 -310 -1 -7 -1 -9 -404 -8 -1203 l3
-1202 280 -2 c154 0 285 -2 290 -3 6 0 10 -116 10 -323 l0 -323 328 -3 327 -2
-2 -282 -3 -282 -284 -3 c-156 -2 -286 -5 -289 -8 -6 -6 -8 -575 -2 -584 7
-10 556 -8 566 1 4 5 8 88 10 185 1 98 3 226 4 284 l2 106 316 1 c175 0 322 1
327 1 8 1 11 96 10 291 l0 290 1605 0 1605 0 0 -290 c-1 -193 3 -290 10 -291
5 0 153 -1 327 -2 l317 -1 1 -110 c1 -104 7 -438 9 -461 1 -11 570 -16 572 -6
1 3 2 138 3 299 l1 292 -90 1 c-49 0 -180 1 -290 2 l-200 3 -3 282 -2 282 327
2 328 3 1 310 c1 171 2 317 3 325 1 14 37 16 289 16 l287 0 3 1202 c2 958 0
1202 -10 1203 -16 1 -619 1 -633 0 -8 -1 -11 -194 -10 -612 0 -336 -2 -614 -5
-618 -3 -4 -133 -7 -290 -7 l-285 1 -3 327 -2 328 -328 2 -327 3 0 282 c0 155
-4 285 -8 289 -5 5 -570 10 -634 5 -10 -1 -13 -66 -13 -291 l0 -290 -949 0
-950 0 0 285 c0 157 -2 288 -4 292 -3 5 -150 8 -326 7 -288 -1 -321 0 -322 15
-1 9 -2 140 -3 291 l-1 275 -327 0 -328 0 0 -291z m1308 -2187 l-3 -292 -325
0 -325 0 0 292 0 291 328 0 327 0 -2 -291z m2553 285 c4 -25 3 -572 -1 -573
-3 -1 -150 -2 -327 -3 l-323 -1 0 291 0 292 325 0 c179 0 325 -3 326 -6z"/>
<path d="M5106 5900 c-1 -3 -2 -133 -2 -290 l1 -285 328 -1 327 -1 0 291 0
292 -326 0 c-179 0 -327 -3 -328 -6z"/>
</g>
</svg>
