<?xml version="1.0" encoding="UTF-8" standalone="no"?>
<!DOCTYPE svg PUBLIC "-//W3C//DTD SVG 1.1//EN" "http://www.w3.org/Graphics/SVG/1.1/DTD/svg11.dtd">
<svg version="1.1" xmlns="http://www.w3.org/2000/svg" xmlns:xlink="http://www.w3.org/1999/xlink" preserveAspectRatio="xMidYMid meet" viewBox="0 0 960 720" width="960" height="720"><defs><path d="M531.53 647.48C531.54 647.47 531.56 647.45 531.56 647.45C531.55 647.45 531.54 647.45 531.53 647.45C531.53 647.46 531.53 647.47 531.53 647.48Z" id="c5kh9qbGn"></path><path d="M531.53 647.48C531.54 647.48 531.55 647.48 531.56 647.48C531.56 647.47 531.56 647.46 531.56 647.45C531.57 647.45 531.54 647.47 531.53 647.48Z" id="bWEy9P3on"></path><path d="M428.47 647.48C428.47 647.47 428.47 647.46 428.47 647.45C428.46 647.45 428.45 647.45 428.44 647.45C428.44 647.46 428.46 647.47 428.47 647.48Z" id="byMGWoiNa"></path><path d="M516.49 551.76C516.49 556.74 516.49 560.05 516.49 565.03C521.47 565.03 526.44 565.03 531.42 565.03C531.42 560.05 531.42 556.74 531.42 551.76C526.44 551.76 521.47 551.76 516.49 551.76Z" id="e1wOKaxTq3"></path><path d="M531.42 593.23C531.42 588.25 531.42 583.27 531.42 578.3C526.44 578.3 521.47 578.3 516.49 578.3C516.49 574.98 516.49 570 516.49 565.03C511.52 565.03 506.54 565.03 501.56 565.03C501.56 570 501.56 574.98 501.56 578.3C494.93 578.3 487.2 578.3 480 578.3C473.37 578.3 465.07 578.3 458.44 578.3C458.44 574.98 458.44 570 458.44 565.03C453.46 565.03 448.48 565.03 443.51 565.03C443.51 570 443.51 574.98 443.51 578.3C438.53 578.3 433.56 578.3 428.58 578.3C428.58 583.27 428.58 588.25 428.58 593.23C423.6 593.23 418.63 593.23 415.31 593.23C415.31 583.27 415.31 574.98 415.31 565.03C410.34 565.03 405.36 565.03 400.38 565.03C400.38 583.27 400.38 601.52 400.38 619.77C405.36 619.77 408.68 619.77 413.65 619.77C413.65 624.74 413.65 629.72 413.65 634.69C418.63 634.69 423.6 634.69 428.58 634.69C428.58 637.74 428.58 642.69 428.58 647.54C424.8 647.59 421.22 647.59 417.44 647.64C416.64 647.65 415.31 647.64 415.31 647.64C415.31 652.19 415.31 656.26 415.31 661.23C418.63 661.23 423.89 661.23 428.44 661.23C428.44 656.41 428.63 652.32 428.64 647.96C428.64 647.96 428.64 647.96 428.64 647.96C433.6 647.96 438.55 647.96 443.51 647.96C443.51 642.99 443.51 638.01 443.51 634.69C456.78 634.69 468.39 634.69 480 634.69C492.01 634.69 503.22 634.69 516.49 634.69C516.49 638.01 516.49 642.99 516.49 647.96C521.45 647.96 526.4 647.96 531.36 647.96C531.36 647.96 531.36 647.96 531.36 647.96C531.37 652.32 531.56 656.41 531.56 661.23C536.11 661.23 541.37 661.23 544.69 661.23C544.69 656.26 544.69 652.19 544.69 647.64C544.69 647.64 543.36 647.65 542.56 647.64C538.78 647.59 535.2 647.59 531.42 647.54C531.42 642.69 531.42 637.74 531.42 634.69C536.4 634.69 541.37 634.69 546.35 634.69C546.35 629.72 546.35 624.74 546.35 619.77C551.32 619.77 554.64 619.77 559.62 619.77C559.62 601.52 559.62 583.27 559.62 565.03C554.64 565.03 549.66 565.03 544.69 565.03C544.69 574.98 544.69 583.27 544.69 593.23C541.37 593.23 536.39 593.23 531.42 593.23ZM458.44 614.79C453.46 614.79 448.49 614.79 443.51 614.79C443.51 611.92 443.51 609.05 443.51 606.5C443.51 604.81 443.51 603.14 443.51 601.52C448.49 601.52 453.46 601.52 458.44 601.52C458.44 603.14 458.44 604.81 458.44 606.5C458.44 609.05 458.44 611.92 458.44 614.79ZM516.49 614.79C511.52 614.79 506.54 614.79 501.56 614.79C501.56 611.92 501.56 609.05 501.56 606.5C501.56 604.81 501.56 603.14 501.56 601.52C506.54 601.52 511.52 601.52 516.49 601.52C516.49 603.14 516.49 604.81 516.49 606.5C516.49 609.05 516.49 611.92 516.49 614.79Z" id="aENRvQGlV"></path><path d="M428.58 565.03C433.56 565.03 438.53 565.03 443.51 565.03C443.51 560.05 443.51 556.74 443.51 551.76C438.53 551.76 433.56 551.76 428.58 551.76C428.58 556.74 428.58 560.05 428.58 565.03Z" id="d9Yl8is9"></path><path d="M428.47 647.48C428.47 647.48 428.44 647.45 428.44 647.45C428.44 647.46 428.44 647.47 428.44 647.48C428.45 647.48 428.46 647.48 428.47 647.48Z" id="a1BAo4vrJi"></path><path d="M346.05 337.64C346.05 411.61 406.03 471.59 480 471.59C553.97 471.59 613.95 411.61 613.95 337.64C613.95 263.66 553.97 203.68 480 203.68C406.03 203.68 346.05 263.66 346.05 337.64ZM359.44 337.64C359.44 271.07 413.41 217.08 480 217.08C546.59 217.08 600.56 271.07 600.56 337.64C600.56 404.23 546.59 458.19 480 458.19C413.41 458.19 359.44 404.23 359.44 337.64ZM546.98 338.87L446.51 277.36L446.51 404.61L546.98 338.87Z" id="cviNaDVZR"></path></defs><g><g><g><use xlink:href="#c5kh9qbGn" opacity="1" fill="#3c7dbd" fill-opacity="1"></use><g><use xlink:href="#c5kh9qbGn" opacity="1" fill-opacity="0" stroke="#000000" stroke-width="1" stroke-opacity="0"></use></g></g><g><use xlink:href="#bWEy9P3on" opacity="1" fill="#3c7dbd" fill-opacity="1"></use><g><use xlink:href="#bWEy9P3on" opacity="1" fill-opacity="0" stroke="#000000" stroke-width="1" stroke-opacity="0"></use></g></g><g><use xlink:href="#byMGWoiNa" opacity="1" fill="#3c7dbd" fill-opacity="1"></use><g><use xlink:href="#byMGWoiNa" opacity="1" fill-opacity="0" stroke="#000000" stroke-width="1" stroke-opacity="0"></use></g></g><g><use xlink:href="#e1wOKaxTq3" opacity="1" fill="#3c7dbd" fill-opacity="1"></use><g><use xlink:href="#e1wOKaxTq3" opacity="1" fill-opacity="0" stroke="#000000" stroke-width="1" stroke-opacity="0"></use></g></g><g><use xlink:href="#aENRvQGlV" opacity="1" fill="#3c7dbd" fill-opacity="1"></use><g><use xlink:href="#aENRvQGlV" opacity="1" fill-opacity="0" stroke="#000000" stroke-width="1" stroke-opacity="0"></use></g></g><g><use xlink:href="#d9Yl8is9" opacity="1" fill="#3c7dbd" fill-opacity="1"></use><g><use xlink:href="#d9Yl8is9" opacity="1" fill-opacity="0" stroke="#000000" stroke-width="1" stroke-opacity="0"></use></g></g><g><use xlink:href="#a1BAo4vrJi" opacity="1" fill="#3c7dbd" fill-opacity="1"></use><g><use xlink:href="#a1BAo4vrJi" opacity="1" fill-opacity="0" stroke="#000000" stroke-width="1" stroke-opacity="0"></use></g></g><g><use xlink:href="#cviNaDVZR" opacity="1" fill="#3c7dbd" fill-opacity="1"></use><g><use xlink:href="#cviNaDVZR" opacity="1" fill-opacity="0" stroke="#000000" stroke-width="1" stroke-opacity="0"></use></g></g></g></g></svg>